<svg width="300" height="300" xmlns="http://www.w3.org/2000/svg"><path d="M39.543 139.35c10.216 0 17.543 7.192 17.543 17.342 0 9.745-6.923 16.937-16.67 16.937a16.21 16.21 0 0 1-4.602-.656v-5.931c1.126.393 2.354.605 3.662.605 6.116 0 10.552-4.704 10.552-11.157 0-6.52-4.436-11.158-10.552-11.158-6.022 0-10.385 4.399-10.61 10.65h-.012v17.665H22V156.49c0-9.948 7.326-17.14 17.543-17.14zm39.792 0c10.217 0 17.61 7.192 17.61 17.14 0 9.947-7.393 17.14-17.61 17.14-10.216 0-17.677-7.193-17.677-17.14 0-9.948 7.46-17.14 17.677-17.14zm36.432 0c7.527 0 12.905 4.1 12.905 10.015h-6.453c-.135-2.958-2.756-4.974-6.587-4.974-3.496 0-6.05 1.748-6.05 4.235 0 3.428 3.026 3.965 6.857 4.705 4.705.873 13.04 2.285 13.04 10.217 0 5.981-5.647 10.081-13.578 10.081-7.999 0-13.644-4.234-13.712-10.35h6.721c.135 3.158 3.092 5.242 7.192 5.242 3.831 0 6.587-1.814 6.587-4.57 0-3.429-3.293-3.965-7.057-4.638-4.974-.74-12.838-2.218-12.838-10.015 0-5.982 5.243-9.948 12.973-9.948zm130.398 0c10.217 0 17.543 7.192 17.61 17.207 0 .672-.067 1.412-.201 2.083h-28.231c.874 5.512 5.176 9.344 10.889 9.344 4.705 0 8.738-2.958 10.015-6.923h6.99c-1.881 7.326-8.939 12.568-17.072 12.568-10.217 0-17.677-7.192-17.677-17.14 0-9.947 7.46-17.139 17.677-17.139zm-99.68-7.93v8.535h7.46v5.78h-7.46v27.29h-6.924v-27.29h-6.117v-5.78h6.117v-8.536h6.923zm19.626 8.535v33.07h-6.855v-33.07h6.855zm43.488-.605c7.73 0 12.77 5.176 12.77 13.04v20.634h-6.923v-20.836c0-4.37-2.688-7.326-6.855-7.326-4.168 0-6.923 2.957-6.923 7.326v20.836h-6.856v-20.836c0-4.37-2.756-7.326-6.924-7.326-4.167 0-6.856 2.957-6.856 7.326v20.836h-6.922V152.39c0-7.864 5.041-13.04 12.77-13.04 5.243 0 9.343 2.353 11.36 6.251 2.016-3.898 6.116-6.25 11.359-6.25zm-130.33 5.982c-6.117 0-10.554 4.705-10.554 11.158 0 6.52 4.437 11.157 10.553 11.157 6.184 0 10.62-4.637 10.62-11.157 0-6.453-4.436-11.158-10.62-11.158zm166.963-.336c-5.377 0-9.477 3.428-10.687 8.335h21.576c-1.143-4.907-5.445-8.335-10.89-8.335zm25.074-18.078c3.886 0 6.694 2.77 6.694 6.582 0 3.85-2.808 6.62-6.694 6.62-3.887 0-6.695-2.77-6.695-6.62 0-3.812 2.808-6.582 6.695-6.582zm0 1.302c-3.087 0-5.337 2.212-5.337 5.28s2.25 5.319 5.337 5.319c3.087 0 5.337-2.25 5.337-5.319 0-3.068-2.25-5.28-5.337-5.28zm.725 1.561c1.394 0 2.343.875 2.343 2.195 0 1.153-.707 1.99-1.804 2.194l1.952 3.05h-1.673l-1.878-3.013h-.911v3.013h-1.432v-7.439h3.403zm-109.348-2.799c2.554 0 4.37 1.614 4.37 4.034 0 2.352-1.816 4.033-4.37 4.033-2.62 0-4.369-1.681-4.369-4.033 0-2.42 1.748-4.034 4.37-4.034zm108.995 3.934h-1.618v2.287h1.618c.706 0 1.153-.447 1.153-1.153 0-.688-.447-1.134-1.153-1.134z" fill="#E6E6E6" fill-rule="evenodd"/></svg>