<svg width="233" height="211" xmlns="http://www.w3.org/2000/svg"><g fill="#FFF"><path d="M217.842 145.58a5.644 5.644 0 0 1-5.632 5.632h-33.829a5.638 5.638 0 0 0 0 11.276h11.276a5.638 5.638 0 0 1 0 11.276h-14.97c-31.438 27.158-77.355 29.339-111.225 5.283-33.869-24.055-46.934-68.13-31.647-106.757H20.539a5.644 5.644 0 0 1 0-11.276h22.576a5.632 5.632 0 0 0 1.58-11.04l.178-.225H31.815a5.644 5.644 0 1 1 0-11.276H55.4c31.312-28.206 77.979-30.978 112.41-6.677 34.43 24.3 47.451 69.2 31.364 108.152h13.07a5.644 5.644 0 0 1 5.6 5.632h-.003Z" opacity=".24"/><path d="M147.225 98.359h-1.183v-4.435c0-16.983-13.767-30.75-30.75-30.75-16.982 0-30.75 13.767-30.75 30.75v4.435h-1.18a1.971 1.971 0 0 0-1.975 1.97v18.43c0 18.725 15.178 33.904 33.902 33.904s33.903-15.179 33.903-33.903v-18.332a1.971 1.971 0 0 0-1.97-2.07h.003Zm-29.074 26.51v8.676a2.858 2.858 0 1 1-5.716 0v-8.673a6.8 6.8 0 1 1 5.716 0v-.002Zm18.035-26.51H94.4v-4.435c0-11.54 9.354-20.894 20.893-20.894 11.54 0 20.894 9.354 20.894 20.894v4.435Z"/></g></svg>