<svg xmlns="http://www.w3.org/2000/svg" width="341" height="65"><path d="M99.83 39.39c0 13.251-9.848 22.83-23.457 22.83s-23.547-9.579-23.547-22.83 9.938-22.83 23.547-22.83S99.83 26.14 99.83 39.39zm-37.6 0c0 8.685 5.91 14.862 14.057 14.862 8.237 0 14.146-6.178 14.146-14.862 0-8.595-5.909-14.862-14.146-14.862-8.151 0-14.061 6.268-14.061 14.862zM142.09 29.9h-8.595c-.18-3.94-3.671-6.626-8.774-6.626-4.656 0-8.058 2.328-8.058 5.641 0 4.566 4.029 5.282 9.132 6.267 6.267 1.164 17.369 3.044 17.369 13.609 0 7.968-7.521 13.429-18.086 13.429-10.654 0-18.175-5.64-18.265-13.787h8.953c.179 4.208 4.119 6.983 9.58 6.983 5.1 0 8.774-2.417 8.774-6.087 0-4.567-4.388-5.283-9.4-6.179-6.626-.985-17.1-2.954-17.1-13.34 0-7.968 6.983-13.25 17.279-13.25 10.028.003 17.191 5.461 17.191 13.34zM175.755 25.065h-9.939v36.35h-9.221v-36.35h-8.148v-7.7h8.148V5.995h9.221v11.37h9.939zM187.395 10.83c-3.492 0-5.82-2.239-5.82-5.372 0-3.223 2.328-5.372 5.82-5.372 3.4 0 5.819 2.149 5.819 5.372 0 3.134-2.417 5.372-5.819 5.372zm4.567 6.536V61.42h-9.133V17.366zM266.898 33.929v27.486h-9.221V33.663c0-5.819-3.581-9.759-9.132-9.759s-9.222 3.94-9.222 9.759v27.755h-9.131V33.663c0-5.819-3.671-9.759-9.222-9.759s-9.132 3.94-9.132 9.759v27.755h-9.221V33.929c0-10.476 6.715-17.369 17.01-17.369 6.984 0 12.445 3.133 15.131 8.326 2.686-5.192 8.147-8.326 15.131-8.326 10.295.003 17.009 6.894 17.009 17.369zM321.783 42.256h-37.6a14.3 14.3 0 0014.5 12.445 13.919 13.919 0 0013.34-9.221h9.311c-2.507 9.758-11.907 16.742-22.741 16.742-13.609 0-23.546-9.579-23.546-22.83s9.937-22.83 23.546-22.83 23.368 9.58 23.458 22.92a14.594 14.594 0 01-.268 2.774zm-37.335-7.073h28.74c-1.522-6.536-7.252-11.1-14.5-11.1a14.285 14.285 0 00-14.24 11.099zM23.367 16.563C9.758 16.563 0 26.143 0 39.393v22.854h9.132v2.816-26.348h.017c.3-8.327 6.11-14.187 14.132-14.187 8.147 0 14.056 6.178 14.056 14.862 0 8.6-5.909 14.862-14.056 14.862a14.764 14.764 0 01-4.879-.806v7.9a21.619 21.619 0 006.132.874c12.982 0 22.2-9.579 22.2-22.562.001-13.518-9.758-23.095-23.367-23.095zM341 8.768A8.918 8.918 0 11332.083 0 8.561 8.561 0 01341 8.768zm-1.808 0a7.109 7.109 0 10-7.109 7.085 6.838 6.838 0 007.109-7.085zm-5.424.892l2.6 4.062h-2.229l-2.5-4.013h-1.213v4.013h-1.907V3.814h4.533a2.865 2.865 0 013.121 2.923 2.833 2.833 0 01-2.405 2.923zm-3.344-1.288h2.154a1.524 1.524 0 100-3.047h-2.154z"/></svg>