<svg width="90" height="90" xmlns="http://www.w3.org/2000/svg"><path d="M66.35 26.512h18.031A43.583 43.583 0 0 0 54.533 2.558c5.321 4.681 9.535 13.225 11.817 23.954ZM54.523 87.441a43.583 43.583 0 0 0 29.848-23.954H66.35c-2.282 10.73-6.496 19.275-11.826 23.955l-.001-.001ZM26.695 63.488C30.006 78.12 37.056 88.5 44.998 88.5s14.992-10.38 18.3-25.013l-36.603.001Zm36.606-36.975C59.99 11.88 52.945 1.5 44.998 1.5c-7.947 0-14.992 10.38-18.303 25.012l36.606.001ZM35.473 2.558A43.583 43.583 0 0 0 5.625 26.512h18.031c2.272-10.729 6.489-19.273 11.817-23.954Zm-11.828 60.93H5.625a43.583 43.583 0 0 0 29.848 23.954c-5.331-4.68-9.545-13.225-11.827-23.954h-.001Zm-10.623-6.952 2.02-10.05c.34-1.767.621-3.631.9-5.37h.155c.214 1.738.524 3.6.9 5.37l2.068 10.05h6.981l4-23.08h-5.263l-1.486 10.516c-.282 2.389-.592 4.835-.864 7.321h-.155c-.466-2.486-.864-4.962-1.33-7.321l-2.419-10.517h-4.651L11.499 43.98a472.087 472.087 0 0 0-1.369 7.321h-.126l-.932-7.321-1.456-10.515H1.945l4.224 23.08h6.855l-.002-.009Zm38.393-5.234h-.155c-.466-2.486-.864-4.962-1.33-7.321l-2.418-10.516h-4.651l-2.359 10.516a472.087 472.087 0 0 0-1.369 7.321h-.126l-.932-7.321-1.456-10.516h-5.68l4.224 23.08h6.855l2.02-10.05c.34-1.767.621-3.631.9-5.37h.155c.214 1.738.524 3.6.9 5.37l2.078 10.05h6.981l4-23.08H53.78l-1.486 10.516c-.291 2.389-.6 4.835-.884 7.321h.005Zm29.867-7.321c-.282 2.389-.592 4.835-.864 7.321h-.155c-.466-2.486-.864-4.962-1.33-7.321l-2.418-10.516h-4.65l-2.359 10.516a472.087 472.087 0 0 0-1.369 7.321h-.126l-.932-7.321-1.456-10.516h-5.678l4.224 23.08h6.855L73.045 46.5c.34-1.767.621-3.631.9-5.37h.155c.214 1.738.524 3.6.9 5.37l2.078 10.05h6.981l4-23.08h-5.272l-1.505 10.511Z" fill="#9B1222"/></svg>