<svg width="90" height="90" xmlns="http://www.w3.org/2000/svg"><g fill="none"><path d="M10.294 22.487a2.68 2.68 0 0 0-2.7 2.664v39.293H82.43V25.151a2.654 2.654 0 0 0-2.665-2.664h-69.47Zm56.181 8.088h4.03a.688.688 0 0 1 .68.682v4.028a.688.688 0 0 1-.68.682h-4.03a.688.688 0 0 1-.68-.682v-4.028a.688.688 0 0 1 .677-.683l.003.001Zm8.646 0h4.03a.688.688 0 0 1 .68.682v4.028a.688.688 0 0 1-.682.682h-4.028a.688.688 0 0 1-.682-.682v-4.028a.689.689 0 0 1 .68-.683l.002.001Zm-56.46.31h41.583a2.648 2.648 0 0 1 2.7 2.6v19.956a2.649 2.649 0 0 1-2.7 2.6H18.658a2.621 2.621 0 0 1-2.664-2.6V33.488a2.621 2.621 0 0 1 2.665-2.6l.002-.003Zm47.814 9.916h4.03a.661.661 0 0 1 .68.65v4.028a.688.688 0 0 1-.68.682h-4.03a.688.688 0 0 1-.68-.682v-4.028a.661.661 0 0 1 .677-.65h.003Zm8.646 0h4.03a.662.662 0 0 1 .68.65v4.028a.688.688 0 0 1-.682.682h-4.028a.688.688 0 0 1-.682-.682v-4.028a.662.662 0 0 1 .68-.65h.002Zm-8.646 10.195h4.03a.687.687 0 0 1 .68.681v4.029a.661.661 0 0 1-.68.65h-4.03a.661.661 0 0 1-.68-.65v-4.029a.687.687 0 0 1 .677-.681h.003Zm8.646 0h4.03a.688.688 0 0 1 .68.681v4.029a.662.662 0 0 1-.682.65h-4.028a.662.662 0 0 1-.682-.65v-4.029a.688.688 0 0 1 .68-.681h.002ZM6.794 66.799c-1.432 1.823-2.982 3.618-4.432 5.516h85.526l-3.657-5.516H6.794Zm-5.609 8.214c-.23 3.758.01 7.477 0 11.093.02.727.605 1.312 1.332 1.333h84.907a1.434 1.434 0 0 0 1.394-1.333c0-3.591.218-7.328 0-11.093H1.183h.002Zm43.816 3.438a2.775 2.775 0 1 1-2.85 2.789 2.827 2.827 0 0 1 2.843-2.79l.007.001Z" fill="#9B1222"/><path d="M36.193 2.565a2 2 0 0 1 2 2v8.122a2 2 0 0 1-2 2h-8.507l.001 3.657a2 2 0 0 1-2 2h-3.273a2 2 0 0 1-2-2v-3.657h-8.506a2 2 0 0 1-2-2V4.565a2 2 0 0 1 2-2h24.285Z" fill="#EBC1C1"/></g></svg>