<svg width="90" height="90" xmlns="http://www.w3.org/2000/svg"><g fill="none"><path d="M53.372 43.461H7.318a4.112 4.112 0 0 0-4.187 4.189v27.909a4.116 4.116 0 0 0 4.187 4.191H82.68a4.112 4.112 0 0 0 4.188-4.187V47.65a4.115 4.115 0 0 0-4.188-4.187H58.954v-9.771a2.791 2.791 0 0 0-5.582 0v9.769ZM7.318 61.603a2.791 2.791 0 1 1 2.791 2.791 2.713 2.713 0 0 1-2.79-2.791Zm6.978 0a1.319 1.319 0 0 1 1.4-1.4 1.4 1.4 0 0 1 0 2.791 1.319 1.319 0 0 1-1.4-1.391Zm4.187 0a1.4 1.4 0 1 1 1.4 1.4 1.319 1.319 0 0 1-1.4-1.4ZM76.4 18.759l-.14-.14-.14-.14a29.186 29.186 0 0 0-19.956-8.229H54.07a29.715 29.715 0 0 0-19.957 8.23l-.14.14-.14.14a3.188 3.188 0 0 0 .14 4.187 3.035 3.035 0 0 0 4.187.14l.14-.14.14-.14a23.654 23.654 0 0 1 16.191-6.557 24.018 24.018 0 0 1 17.026 6.559.137.137 0 0 0 .14.14l.14.14a3.124 3.124 0 0 0 4.466-4.326l-.004-.004Z" fill="#9B1222"/><path d="M69.283 26.435a20.071 20.071 0 0 0-13.12-5.718h-1.4a18.993 18.993 0 0 0-13.118 5.582 3.059 3.059 0 0 0 4.326 4.326l.28-.279a13.768 13.768 0 0 1 9.49-3.768 14.006 14.006 0 0 1 9.21 3.768l.28.279a2.955 2.955 0 0 0 4.325 0 3.051 3.051 0 0 0-.273-4.19Z" fill="#EBC1C1"/></g></svg>