<svg width="30" height="30" xmlns="http://www.w3.org/2000/svg"><g fill="none"><path d="M14.999 0C6.715 0-.001 6.717 0 15c0 8.285 6.716 15 15 15 8.284 0 15-6.716 15-15A14.988 14.988 0 0 0 14.999 0Z" fill="#C9172C"/><path d="M20.072 18.843a.846.846 0 0 1 0 1.225.845.845 0 0 1-1.224 0l-3.846-3.848-3.846 3.848a.845.845 0 0 1-1.224 0 .846.846 0 0 1 0-1.225l3.846-3.848-3.845-3.848a.866.866 0 0 1 1.223-1.223l3.846 3.847 3.846-3.847a.865.865 0 1 1 1.224 1.224l-3.846 3.848 3.846 3.848v-.001Z" fill="#FFF"/></g></svg>