<svg width="32" height="32" xmlns="http://www.w3.org/2000/svg"><g fill="none"><path d="M23.999 3.997h-16a4 4 0 0 0-4 4v16a4 4 0 0 0 4 4h16a4 4 0 0 0 4-4v-16a4 4 0 0 0-4-4Z" fill="#B6B6B6"/><path d="M7.999 5.997h16a2 2 0 0 1 2 2v16a2 2 0 0 1-2 2h-16a2 2 0 0 1-2-2v-16a2 2 0 0 1 2-2Z" fill="#FFF"/><path d="M14.093 24.461c1.714-3.131 7.7-8.73 11.976-11.588l1.68-1.026a7.066 7.066 0 0 1 1.7-.705c-1.318-3-.162-5.445.026-8.262a25.6 25.6 0 0 0-4.735 3.266l-1.789 1.608a76.943 76.943 0 0 0-9.257 10.9l-3.009-5.822-6.835 3.323c2.892 1.031 7.316 4.706 10.235 8.305l.008.001Z" fill="#4FB714"/></g></svg>