<svg width="90" height="90" xmlns="http://www.w3.org/2000/svg"><g fill="none"><path d="M87.845 46.465a1.926 1.926 0 0 1-1.962-1.962V7.528a.566.566 0 0 0-.526-.526H43.222a.566.566 0 0 0-.526.526v12.931a1.962 1.962 0 1 1-3.924 0V7.528A4.483 4.483 0 0 1 43.21 3.09h42.143a4.483 4.483 0 0 1 4.438 4.438v36.975a1.909 1.909 0 0 1-1.95 1.962h.004Zm-18.553-.514a20.106 20.106 0 0 0-7.381 1.376c-.65-11.47-10.313-20.339-21.796-20.005C28.63 27.656 19.5 37.07 19.517 48.56c.013 1.27.12 2.538.323 3.792-.79-.06-1.507-.132-2.285-.132C7.975 52.219.21 59.985.21 69.564c0 9.58 7.766 17.345 17.345 17.345h51.732a20.479 20.479 0 1 0 0-40.958h.005Z" fill="#9B1222"/><path d="M86.872 22.43H40.747a1.962 1.962 0 0 1 0-3.924h46.126a1.962 1.962 0 1 1 0 3.924h-.001Zm.909 14.761H65.7a1.962 1.962 0 0 1 0-3.924h22.082a1.962 1.962 0 1 1 0 3.924h-.001Zm-6.268-22.142h-6.734a1.962 1.962 0 0 1 0-3.924h6.735a1.962 1.962 0 1 1 0 3.924h-.001Zm0 14.558h-6.734a1.962 1.962 0 0 1 0-3.924h6.735a1.962 1.962 0 1 1 0 3.924h-.001Z" fill="#EBC1C1"/><path d="M18.555 73.178v-3.945h1.485c2.385 0 4.29-1.14 4.29-3.675 0-2.625-1.89-3.495-4.35-3.495h-3.645v11.115h2.22Zm1.335-5.7h-1.335v-3.645h1.26c1.53 0 2.34.435 2.34 1.725 0 1.275-.735 1.92-2.265 1.92Zm9.405 5.91c2.1 0 4.035-1.62 4.035-4.41s-1.935-4.41-4.035-4.41-4.035 1.62-4.035 4.41 1.935 4.41 4.035 4.41Zm0-1.8c-1.14 0-1.785-1.02-1.785-2.61 0-1.575.645-2.61 1.785-2.61s1.785 1.035 1.785 2.61c0 1.59-.645 2.61-1.785 2.61Zm8.205 1.8c2.19 0 3.345-1.185 3.345-2.655 0-1.56-1.23-2.115-2.34-2.535-.885-.33-1.665-.555-1.665-1.17 0-.48.36-.81 1.125-.81.615 0 1.2.285 1.8.72l.99-1.335c-.69-.525-1.635-1.035-2.85-1.035-1.92 0-3.135 1.065-3.135 2.565 0 1.41 1.185 2.055 2.25 2.46.885.345 1.755.63 1.755 1.26 0 .525-.375.885-1.215.885-.78 0-1.5-.33-2.25-.915l-1.005 1.38c.84.69 2.07 1.185 3.195 1.185Zm7.755 0c.735 0 1.32-.165 1.77-.315l-.36-1.605c-.225.09-.555.18-.825.18-.75 0-1.14-.45-1.14-1.41v-3.72h2.07v-1.74H44.7v-2.265h-1.83l-.255 2.265-1.305.105v1.635h1.185v3.72c0 1.875.765 3.15 2.76 3.15Zm4.335-9.96c.75 0 1.275-.48 1.275-1.215 0-.72-.525-1.2-1.275-1.2-.765 0-1.29.48-1.29 1.2 0 .735.525 1.215 1.29 1.215Zm1.095 9.75v-8.4H48.48v8.4h2.205Zm4.56 0v-5.775c.585-.63 1.125-.945 1.605-.945.795 0 1.185.45 1.185 1.755v4.965h2.19v-5.775c.6-.63 1.14-.945 1.62-.945.795 0 1.17.45 1.17 1.755v4.965h2.205v-5.235c0-2.115-.825-3.375-2.61-3.375-1.095 0-1.905.66-2.67 1.47-.405-.93-1.11-1.47-2.31-1.47-1.095 0-1.875.6-2.58 1.335h-.045l-.165-1.125h-1.8v8.4h2.205Zm15.915.21c1.035 0 2.1-.36 2.925-.93l-.75-1.35c-.6.375-1.2.585-1.89.585-1.245 0-2.145-.72-2.325-2.1h5.175c.06-.195.105-.6.105-1.02 0-2.31-1.2-4.005-3.51-4.005-1.995 0-3.915 1.695-3.915 4.41 0 2.775 1.83 4.41 4.185 4.41Zm1.35-5.265h-3.42c.165-1.215.945-1.845 1.83-1.845 1.08 0 1.59.72 1.59 1.845Z" fill="#FFF"/></g></svg>