<svg width="32" height="32" xmlns="http://www.w3.org/2000/svg"><g transform="translate(4 4)" fill="none"><path d="M20 0H4a4 4 0 0 0-4 4v16a4 4 0 0 0 4 4h16a4 4 0 0 0 4-4V4a4 4 0 0 0-4-4Z" fill="#B6B6B6"/><path d="M4 2h16a2 2 0 0 1 2 2v16a2 2 0 0 1-2 2H4a2 2 0 0 1-2-2V4a2 2 0 0 1 2-2Z" fill="#FFF"/><path d="M26.449 25.453a1.336 1.336 0 0 1-1.935 0l-4.285-4.285a9.611 9.611 0 0 1-12.3-.553 9.806 9.806 0 0 1-.417-13.823 9.679 9.679 0 0 1 13.823-.138 9.517 9.517 0 0 1 .829 12.579l4.285 4.285a1.336 1.336 0 0 1 0 1.935Zm-6.5-16.034a6.85 6.85 0 0 0-11.2 0 6.843 6.843 0 0 0 0 8.155 6.85 6.85 0 0 0 11.2 0 6.842 6.842 0 0 0 .003-8.156l-.003.001Z" fill="#000"/><circle fill="#707070" cx="10.632" cy="13.828" r="1.204"/><circle fill="#707070" cx="14.244" cy="13.828" r="1.204"/><circle fill="#707070" cx="17.856" cy="13.828" r="1.204"/></g></svg>