<svg width="90" height="90" xmlns="http://www.w3.org/2000/svg"><g fill="none"><path d="M87.845 46.465a1.926 1.926 0 0 1-1.962-1.962V7.528a.566.566 0 0 0-.526-.526H43.222a.566.566 0 0 0-.526.526v12.931a1.962 1.962 0 1 1-3.924 0V7.528A4.483 4.483 0 0 1 43.21 3.09h42.143a4.483 4.483 0 0 1 4.438 4.438v36.975a1.909 1.909 0 0 1-1.95 1.962h.004Zm-18.553-.514a20.106 20.106 0 0 0-7.381 1.376c-.65-11.47-10.313-20.339-21.796-20.005C28.63 27.656 19.5 37.07 19.517 48.56c.013 1.27.12 2.538.323 3.792-.79-.06-1.507-.132-2.285-.132C7.975 52.219.21 59.985.21 69.564c0 9.58 7.766 17.345 17.345 17.345h51.732a20.479 20.479 0 1 0 0-40.958h.005Z" fill="#9B1222"/><path d="M86.872 22.43H40.747a1.962 1.962 0 0 1 0-3.924h46.126a1.962 1.962 0 1 1 0 3.924h-.001Zm.909 14.761H65.7a1.962 1.962 0 0 1 0-3.924h22.082a1.962 1.962 0 1 1 0 3.924h-.001Zm-6.268-22.142h-6.734a1.962 1.962 0 0 1 0-3.924h6.735a1.962 1.962 0 1 1 0 3.924h-.001Zm0 14.558h-6.734a1.962 1.962 0 0 1 0-3.924h6.735a1.962 1.962 0 1 1 0 3.924h-.001Z" fill="#EBC1C1"/><path d="M35.153 73.178v-3.945h1.485c2.385 0 4.29-1.14 4.29-3.675 0-2.625-1.89-3.495-4.35-3.495h-3.646v11.115h2.22Zm1.335-5.7h-1.335v-3.645h1.26c1.53 0 2.34.435 2.34 1.725 0 1.275-.736 1.92-2.265 1.92Zm7.724 5.91c.96 0 1.8-.48 2.535-1.11h.06l.15.9h1.8v-4.905c0-2.43-1.094-3.705-3.224-3.705-1.32 0-2.52.495-3.51 1.11l.794 1.455c.78-.45 1.53-.795 2.31-.795 1.035 0 1.395.63 1.44 1.455-3.39.36-4.844 1.305-4.844 3.105 0 1.425.99 2.49 2.49 2.49Zm.72-1.725c-.645 0-1.11-.285-1.11-.945 0-.75.69-1.32 2.745-1.575v1.695c-.54.525-1.005.825-1.635.825Zm6.81 4.89c1.876 0 2.776-1.14 3.51-3.12l2.986-8.655h-2.115l-1.155 3.9c-.196.78-.406 1.59-.6 2.37h-.075c-.24-.81-.45-1.62-.706-2.37l-1.335-3.9h-2.22l3.27 8.25-.15.495c-.24.735-.72 1.275-1.575 1.275-.194 0-.434-.06-.584-.105l-.406 1.695c.33.105.66.165 1.155.165Z" fill="#FFF"/></g></svg>