<svg width="90" height="90" xmlns="http://www.w3.org/2000/svg"><g fill="none"><path d="M65.555 1.755H24.424a6.276 6.276 0 0 0-6.163 6.371v67.916a6.276 6.276 0 0 0 6.163 6.371h41.139a6.276 6.276 0 0 0 6.172-6.371V8.117a6.276 6.276 0 0 0-6.18-6.362Zm-32.94 35.774a3.19 3.19 0 1 1 0-6.38h24.722a3.19 3.19 0 0 1 0 6.38H32.615Zm16.47 27.591a4.109 4.109 0 1 1-4.11-4.247 4.169 4.169 0 0 1 4.11 4.247Zm8.217-42.474H32.64a3.19 3.19 0 0 1 0-6.371h24.687a3.19 3.19 0 0 1 0 6.371h-.026Z" fill="#9B1222"/><path d="M66.37 83.921H23.627c-1.734 0-3.207.971-3.207 2.167 0 1.196 1.439 2.158 3.207 2.158H66.36c1.734 0 3.207-.962 3.225-2.158.018-1.196-1.448-2.167-3.216-2.167Z" fill="#EBC1C1"/></g></svg>