<svg width="24" height="24" xmlns="http://www.w3.org/2000/svg"><g fill-rule="evenodd"><path d="M22.579 0c.785 0 1.425.64 1.425 1.425v12.63c0 .786-.64 1.425-1.425 1.425H1.425C.64 15.48 0 14.84 0 14.055V1.425A1.41 1.41 0 0 1 1.425 0Zm-.286 1.71H1.711v12.06h20.582V1.71Zm-5.844 8.581v1.711H7.555v-1.71h8.894ZM6.785 7.013v1.71H3.449v-1.71h3.336Zm4.59 0v1.71H8.039v-1.71h3.336Zm4.59 0v1.71h-3.336v-1.71h3.336Zm4.59 0v1.71h-3.336v-1.71h3.335ZM6.784 3.421v1.71H3.449v-1.71h3.336Zm4.59 0v1.71H8.039v-1.71h3.336Zm4.59 0v1.71h-3.336v-1.71h3.336Zm4.59 0v1.71h-3.336v-1.71h3.335Z" fill-rule="nonzero"/><path d="M6 18h12l-5.998 6z"/></g></svg>