<svg width="24" height="24" xmlns="http://www.w3.org/2000/svg"><path d="M22.579 4.26c.785 0 1.425.64 1.425 1.425v12.63c0 .786-.64 1.425-1.425 1.425H1.425C.64 19.74 0 19.1 0 18.315V5.685A1.41 1.41 0 0 1 1.425 4.26Zm-.286 1.71H1.711v12.06h20.582V5.97Zm-5.844 8.581v1.711H7.555v-1.71h8.894Zm-9.664-3.278v1.71H3.449v-1.71h3.336Zm4.59 0v1.71H8.039v-1.71h3.336Zm4.59 0v1.71h-3.336v-1.71h3.336Zm4.59 0v1.71h-3.336v-1.71h3.335ZM6.784 7.681v1.71H3.449v-1.71h3.336Zm4.59 0v1.71H8.039v-1.71h3.336Zm4.59 0v1.71h-3.336v-1.71h3.336Zm4.59 0v1.71h-3.336v-1.71h3.335Z"/></svg>